# xmcd CD database file
#
# Track frame offsets:
#	150
#	21588
#	36919
#	51655
#	71316
#	83194
#	92195
#	111711
#	131570
#	149595
#	165801
#	176056
#	192769
#	205033
#	212834
#	228944
#	246235
#	259623
#	276292
#	292943
#
# Disc length: 4076 seconds
#
# Revision: 2
# Processed by: cddbd v1.4b41PL1 Copyright (c) Steve Scherf et al.
# Submitted via: Feurio! 1.52 - http://www.feurio.com
#
DISCID=310fea14
DTITLE=Various Artist - The Annual 2000 CD1
DYEAR=1900
DGENRE=
TTITLE0=??? - Track: 1
TTITLE1=??? - Track: 2
TTITLE2=??? - Track: 3
TTITLE3=??? - Track: 4
TTITLE4=??? - Track: 5
TTITLE5=??? - Track: 6
TTITLE6=??? - Track: 7
TTITLE7=??? - Track: 8
TTITLE8=??? - Track: 9
TTITLE9=??? - Track: 10
TTITLE10=??? - Track: 11
TTITLE11=??? - Track: 12
TTITLE12=??? - Track: 13
TTITLE13=??? - Track: 14
TTITLE14=??? - Track: 15
TTITLE15=??? - Track: 16
TTITLE16=??? - Track: 17
TTITLE17=??? - Track: 18
TTITLE18=??? - Track: 19
TTITLE19=??? - Track: 20
EXTD=
EXTT0=
EXTT1=
EXTT2=
EXTT3=
EXTT4=
EXTT5=
EXTT6=
EXTT7=
EXTT8=
EXTT9=
EXTT10=
EXTT11=
EXTT12=
EXTT13=
EXTT14=
EXTT15=
EXTT16=
EXTT17=
EXTT18=
EXTT19=
PLAYORDER=
